<svg width="160" height="29" viewBox="0 0 160 29" fill="none" xmlns="http://www.w3.org/2000/svg">
<path d="M16.9176 11.6562H13.1847C13.1165 11.1733 12.9773 10.7443 12.767 10.3693C12.5568 9.98864 12.2869 9.66477 11.9574 9.39773C11.6278 9.13068 11.2472 8.92614 10.8153 8.78409C10.3892 8.64205 9.92614 8.57102 9.42614 8.57102C8.52273 8.57102 7.7358 8.79545 7.06534 9.24432C6.39489 9.6875 5.875 10.3352 5.50568 11.1875C5.13636 12.0341 4.9517 13.0625 4.9517 14.2727C4.9517 15.517 5.13636 16.5625 5.50568 17.4091C5.88068 18.2557 6.40341 18.8949 7.07386 19.3267C7.74432 19.7585 8.51989 19.9744 9.40057 19.9744C9.89489 19.9744 10.3523 19.9091 10.7727 19.7784C11.1989 19.6477 11.5767 19.4574 11.9062 19.2074C12.2358 18.9517 12.5085 18.642 12.7244 18.2784C12.946 17.9148 13.0994 17.5 13.1847 17.0341L16.9176 17.0511C16.821 17.8523 16.5795 18.625 16.1932 19.3693C15.8125 20.108 15.2983 20.7699 14.6506 21.3551C14.0085 21.9347 13.2415 22.3949 12.3494 22.7358C11.4631 23.071 10.4602 23.2386 9.34091 23.2386C7.78409 23.2386 6.39205 22.8864 5.16477 22.1818C3.94318 21.4773 2.97727 20.4574 2.26705 19.1222C1.5625 17.7869 1.21023 16.1705 1.21023 14.2727C1.21023 12.3693 1.56818 10.75 2.28409 9.41477C3 8.07955 3.97159 7.0625 5.19886 6.36364C6.42614 5.65909 7.80682 5.30682 9.34091 5.30682C10.3523 5.30682 11.2898 5.44886 12.1534 5.73295C13.0227 6.01705 13.7926 6.43182 14.4631 6.97727C15.1335 7.51704 15.679 8.17898 16.0994 8.96307C16.5256 9.74716 16.7983 10.6449 16.9176 11.6562ZM22.7173 5.54545L26.9361 18.8068H27.098L31.3253 5.54545H35.4162L29.3991 23H24.6435L18.6179 5.54545H22.7173ZM43.0717 23V5.54545H50.0604C51.3445 5.54545 52.4155 5.7358 53.2734 6.11648C54.1314 6.49716 54.7763 7.02557 55.2081 7.7017C55.6399 8.37216 55.8558 9.14489 55.8558 10.0199C55.8558 10.7017 55.7195 11.3011 55.4467 11.8182C55.174 12.3295 54.799 12.75 54.3217 13.0795C53.8501 13.4034 53.3104 13.6335 52.7024 13.7699V13.9403C53.3672 13.9687 53.9893 14.1562 54.5689 14.5028C55.1541 14.8494 55.6286 15.3352 55.9922 15.9602C56.3558 16.5795 56.5376 17.3182 56.5376 18.1761C56.5376 19.1023 56.3075 19.929 55.8473 20.6562C55.3928 21.3778 54.7195 21.9489 53.8274 22.3693C52.9354 22.7898 51.8359 23 50.5291 23H43.0717ZM46.7621 19.983H49.7706C50.799 19.983 51.549 19.7869 52.0206 19.3949C52.4922 18.9972 52.728 18.4687 52.728 17.8097C52.728 17.3267 52.6115 16.9006 52.3786 16.5312C52.1456 16.1619 51.8132 15.8722 51.3814 15.6619C50.9553 15.4517 50.4467 15.3466 49.8558 15.3466H46.7621V19.983ZM46.7621 12.8494H49.4979C50.0036 12.8494 50.4524 12.7614 50.8445 12.5852C51.2422 12.4034 51.5547 12.1477 51.782 11.8182C52.0149 11.4886 52.1314 11.0938 52.1314 10.6335C52.1314 10.0028 51.907 9.49432 51.4581 9.10795C51.0149 8.72159 50.3842 8.52841 49.5661 8.52841H46.7621V12.8494ZM67.2656 17.4261V9.90909H70.8963V23H67.4105V20.6222H67.2741C66.9787 21.3892 66.4872 22.0057 65.7997 22.4716C65.1179 22.9375 64.2855 23.1705 63.3026 23.1705C62.4276 23.1705 61.6577 22.9716 60.9929 22.5739C60.3281 22.1761 59.8082 21.6108 59.4332 20.8778C59.0639 20.1449 58.8764 19.267 58.8707 18.2443V9.90909H62.5014V17.5966C62.5071 18.3693 62.7145 18.9801 63.1236 19.429C63.5327 19.8778 64.081 20.1023 64.7685 20.1023C65.206 20.1023 65.6151 20.0028 65.9957 19.804C66.3764 19.5994 66.6832 19.2983 66.9162 18.9006C67.1548 18.5028 67.2713 18.0114 67.2656 17.4261ZM73.8004 23V9.90909H77.4311V23H73.8004ZM75.6243 8.22159C75.0845 8.22159 74.6214 8.04261 74.2351 7.68466C73.8544 7.32102 73.6641 6.88636 73.6641 6.38068C73.6641 5.88068 73.8544 5.4517 74.2351 5.09375C74.6214 4.73011 75.0845 4.54829 75.6243 4.54829C76.1641 4.54829 76.6243 4.73011 77.005 5.09375C77.3913 5.4517 77.5845 5.88068 77.5845 6.38068C77.5845 6.88636 77.3913 7.32102 77.005 7.68466C76.6243 8.04261 76.1641 8.22159 75.6243 8.22159ZM83.9702 5.54545V23H80.3395V5.54545H83.9702ZM91.7024 23.2131C90.7081 23.2131 89.8075 22.9574 89.0007 22.446C88.1996 21.929 87.5632 21.1705 87.0916 20.1705C86.6257 19.1648 86.3928 17.9318 86.3928 16.4716C86.3928 14.9716 86.6342 13.7244 87.1172 12.7301C87.6001 11.7301 88.2422 10.983 89.0433 10.4886C89.8501 9.98864 90.7337 9.73864 91.6939 9.73864C92.4268 9.73864 93.0376 9.86364 93.5263 10.1136C94.0206 10.358 94.4183 10.6648 94.7195 11.0341C95.0263 11.3977 95.2592 11.7557 95.4183 12.108H95.5291V5.54545H99.1513V23H95.5717V20.9034H95.4183C95.2479 21.267 95.0064 21.6278 94.6939 21.9858C94.3871 22.3381 93.9865 22.6307 93.4922 22.8636C93.0036 23.0966 92.407 23.2131 91.7024 23.2131ZM92.853 20.3239C93.4382 20.3239 93.9325 20.1648 94.3359 19.8466C94.745 19.5227 95.0575 19.071 95.2734 18.4915C95.495 17.9119 95.6058 17.233 95.6058 16.4545C95.6058 15.6761 95.4979 15 95.282 14.4261C95.0661 13.8523 94.7536 13.4091 94.3445 13.0966C93.9354 12.7841 93.4382 12.6278 92.853 12.6278C92.2564 12.6278 91.7536 12.7898 91.3445 13.1136C90.9354 13.4375 90.6257 13.8864 90.4155 14.4602C90.2053 15.0341 90.1001 15.6989 90.1001 16.4545C90.1001 17.2159 90.2053 17.8892 90.4155 18.4744C90.6314 19.054 90.9411 19.5085 91.3445 19.8381C91.7536 20.1619 92.2564 20.3239 92.853 20.3239ZM108.102 23.2557C106.756 23.2557 105.597 22.983 104.625 22.4375C103.659 21.8864 102.915 21.108 102.392 20.1023C101.869 19.0909 101.608 17.8949 101.608 16.5142C101.608 15.1676 101.869 13.9858 102.392 12.9688C102.915 11.9517 103.651 11.1591 104.599 10.5909C105.554 10.0227 106.673 9.73864 107.957 9.73864C108.821 9.73864 109.625 9.87784 110.369 10.1562C111.119 10.429 111.773 10.8409 112.33 11.392C112.892 11.9432 113.33 12.6364 113.642 13.4716C113.955 14.3011 114.111 15.2727 114.111 16.3864V17.3835H103.057V15.1335H110.693C110.693 14.6108 110.58 14.1477 110.352 13.7443C110.125 13.3409 109.81 13.0256 109.406 12.7983C109.009 12.5653 108.545 12.4489 108.017 12.4489C107.466 12.4489 106.977 12.5767 106.551 12.8324C106.131 13.0824 105.801 13.4205 105.562 13.8466C105.324 14.267 105.202 14.7358 105.196 15.2528V17.392C105.196 18.0398 105.315 18.5994 105.554 19.071C105.798 19.5426 106.142 19.9062 106.585 20.1619C107.028 20.4176 107.554 20.5455 108.162 20.5455C108.565 20.5455 108.935 20.4886 109.27 20.375C109.605 20.2614 109.892 20.0909 110.131 19.8636C110.369 19.6364 110.551 19.358 110.676 19.0284L114.034 19.25C113.864 20.0568 113.514 20.7614 112.986 21.3636C112.463 21.9602 111.787 22.4261 110.957 22.7614C110.134 23.0909 109.182 23.2557 108.102 23.2557ZM116.48 23V9.90909H120V12.1932H120.136C120.375 11.3807 120.776 10.767 121.338 10.3523C121.901 9.93182 122.548 9.72159 123.281 9.72159C123.463 9.72159 123.659 9.73295 123.869 9.75568C124.08 9.77841 124.264 9.80966 124.423 9.84943V13.071C124.253 13.0199 124.017 12.9744 123.716 12.9347C123.415 12.8949 123.139 12.875 122.889 12.875C122.355 12.875 121.878 12.9915 121.457 13.2244C121.043 13.4517 120.713 13.7699 120.469 14.179C120.23 14.5881 120.111 15.0597 120.111 15.5938V23H116.48Z" fill="#212529"/>
<path fill-rule="evenodd" clip-rule="evenodd" d="M154 4.37866C153.172 4.37866 152.378 4.70751 151.793 5.29288L139.293 17.7929C139.165 17.921 139.074 18.0816 139.03 18.2574L138.03 22.2574C137.945 22.5982 138.045 22.9587 138.293 23.2071C138.541 23.4555 138.902 23.5553 139.243 23.4701L143.243 22.4701C143.418 22.4262 143.579 22.3352 143.707 22.2071L156.207 9.70709C156.497 9.41725 156.727 9.07316 156.884 8.69446C157.041 8.31576 157.121 7.90988 157.121 7.49998C157.121 7.09008 157.041 6.6842 156.884 6.3055C156.727 5.92681 156.497 5.58272 156.207 5.29288C155.917 5.00303 155.573 4.77312 155.194 4.61626C154.816 4.4594 154.41 4.37866 154 4.37866ZM153.207 6.70709C153.417 6.4968 153.703 6.37866 154 6.37866C154.147 6.37866 154.293 6.40767 154.429 6.46402C154.565 6.52037 154.689 6.60296 154.793 6.70709C154.897 6.81121 154.98 6.93483 155.036 7.07087C155.092 7.20692 155.121 7.35273 155.121 7.49998C155.121 7.64724 155.092 7.79305 155.036 7.92909C154.98 8.06514 154.897 8.18875 154.793 8.29288L142.489 20.597L140.374 21.1256L140.903 19.0112L153.207 6.70709Z" fill="#F7B267"/>
<path d="M148 21.5C147.448 21.5 147 21.9477 147 22.5C147 23.0523 147.448 23.5 148 23.5H157C157.552 23.5 158 23.0523 158 22.5C158 21.9477 157.552 21.5 157 21.5H148Z" fill="#F7B267"/>
</svg>
