<svg width="15" height="12" viewBox="0 0 15 12" fill="none" xmlns="http://www.w3.org/2000/svg">
<path fill-rule="evenodd" clip-rule="evenodd" d="M9.02319e-05 1.98844C-1.78854e-05 1.99502 -2.87838e-05 2.00159 5.72241e-05 2.00817V10C5.72241e-05 11.1015 0.898534 12 2.00006 12H12.6667C13.7682 12 14.6667 11.1015 14.6667 10V2.00824C14.6668 2.00161 14.6668 1.99498 14.6667 1.98834C14.6604 0.892144 13.7644 0 12.6667 0H2.00006C0.902391 0 0.00635083 0.892197 9.02319e-05 1.98844ZM1.40444 1.70263C1.5147 1.48462 1.74142 1.33333 2.00006 1.33333H12.6667C12.9254 1.33333 13.1521 1.48462 13.2623 1.70263L7.33339 5.8529L1.40444 1.70263ZM13.3334 3.28044V10C13.3334 10.3651 13.0319 10.6667 12.6667 10.6667H2.00006C1.63491 10.6667 1.33339 10.3651 1.33339 10V3.28044L6.95108 7.21282C7.18063 7.3735 7.48615 7.3735 7.7157 7.21282L13.3334 3.28044Z" fill="black"/>
</svg>
