<svg width="16" height="16" viewBox="0 0 16 16" fill="none" xmlns="http://www.w3.org/2000/svg">
<g clip-path="url(#clip0_31_1132)">
<path fill-rule="evenodd" clip-rule="evenodd" d="M13.3333 0.585754C12.7814 0.585754 12.2521 0.804989 11.8619 1.19523L5.52856 7.52856C5.44312 7.614 5.3825 7.72106 5.3532 7.83828L4.68653 10.5049C4.62974 10.7321 4.6963 10.9725 4.86189 11.138C5.02748 11.3036 5.2678 11.3702 5.49498 11.3134L8.16165 10.6467C8.27887 10.6174 8.38592 10.5568 8.47136 10.4714L14.8047 4.13804C15.1949 3.7478 15.4142 3.21852 15.4142 2.66663C15.4142 2.11475 15.1949 1.58547 14.8047 1.19523C14.4145 0.804989 13.8852 0.585754 13.3333 0.585754ZM12.8047 2.13804C12.9449 1.99785 13.135 1.91909 13.3333 1.91909C13.5316 1.91909 13.7217 1.99785 13.8619 2.13804C14.0021 2.27823 14.0808 2.46837 14.0808 2.66663C14.0808 2.8649 14.0021 3.05504 13.8619 3.19523L7.65913 9.39799L6.24954 9.75039L6.60194 8.3408L12.8047 2.13804Z" fill="black"/>
<path d="M2.66663 1.99998C2.13619 1.99998 1.62749 2.21069 1.25241 2.58577C0.87734 2.96084 0.666626 3.46955 0.666626 3.99998V13.3333C0.666626 13.8637 0.87734 14.3725 1.25241 14.7475C1.62748 15.1226 2.13619 15.3333 2.66663 15.3333H12C12.5304 15.3333 13.0391 15.1226 13.4142 14.7475C13.7892 14.3725 14 13.8637 14 13.3333V8.66665C14 8.29846 13.7015 7.99998 13.3333 7.99998C12.9651 7.99998 12.6666 8.29846 12.6666 8.66665V13.3333C12.6666 13.5101 12.5964 13.6797 12.4714 13.8047C12.3463 13.9297 12.1768 14 12 14H2.66663C2.48982 14 2.32025 13.9297 2.19522 13.8047C2.0702 13.6797 1.99996 13.5101 1.99996 13.3333V3.99998C1.99996 3.82317 2.0702 3.6536 2.19522 3.52858C2.32025 3.40355 2.48981 3.33331 2.66663 3.33331H7.33329C7.70148 3.33331 7.99996 3.03484 7.99996 2.66665C7.99996 2.29846 7.70148 1.99998 7.33329 1.99998H2.66663Z" fill="black"/>
</g>
<defs>
<clipPath id="clip0_31_1132">
<rect width="16" height="16" fill="white"/>
</clipPath>
</defs>
</svg>
