<svg width="20" height="20" viewBox="0 0 20 20" fill="none" xmlns="http://www.w3.org/2000/svg">
<g clip-path="url(#clip0_339_2535)">
<path fill-rule="evenodd" clip-rule="evenodd" d="M9.99998 6.66667C8.15903 6.66667 6.66664 8.15905 6.66664 10C6.66664 11.8409 8.15903 13.3333 9.99998 13.3333C11.8409 13.3333 13.3333 11.8409 13.3333 10C13.3333 8.15905 11.8409 6.66667 9.99998 6.66667ZM8.33331 10C8.33331 9.07953 9.0795 8.33333 9.99998 8.33333C10.9205 8.33333 11.6666 9.07953 11.6666 10C11.6666 10.9205 10.9205 11.6667 9.99998 11.6667C9.0795 11.6667 8.33331 10.9205 8.33331 10Z" fill="black"/>
<path fill-rule="evenodd" clip-rule="evenodd" d="M19.9117 9.62673C19.9119 9.62704 19.912 9.62732 19.1666 10C19.912 10.3727 19.9119 10.373 19.9117 10.3733L19.9104 10.3759L19.9075 10.3816L19.898 10.4001C19.8901 10.4156 19.8788 10.4372 19.8643 10.4646C19.8354 10.5194 19.7933 10.5973 19.7383 10.695C19.6285 10.8903 19.4668 11.1654 19.2547 11.4938C18.8316 12.1489 18.2026 13.0245 17.3788 13.9033C15.7462 15.6446 13.2496 17.5 9.99998 17.5C6.75039 17.5 4.25371 15.6446 2.62119 13.9033C1.79734 13.0245 1.16836 12.1489 0.745255 11.4938C0.533184 11.1654 0.371469 10.8903 0.261618 10.695C0.206662 10.5973 0.164592 10.5194 0.135603 10.4646C0.121106 10.4372 0.109871 10.4156 0.101924 10.4001L0.0924671 10.3816L0.0895913 10.3759L0.0886172 10.374C0.0884641 10.3737 0.0879528 10.3727 0.833309 10C0.0879528 9.62732 0.0880931 9.62704 0.0882463 9.62673L0.0895913 9.62406L0.0924671 9.61837L0.101924 9.59985C0.109871 9.58439 0.121106 9.56276 0.135603 9.53536C0.164592 9.48058 0.206662 9.40269 0.261618 9.30499C0.371469 9.1097 0.533184 8.8346 0.745255 8.50623C1.16836 7.85109 1.79734 6.9755 2.62119 6.09672C4.25371 4.35537 6.75039 2.5 9.99998 2.5C13.2496 2.5 15.7462 4.35537 17.3788 6.09672C18.2026 6.9755 18.8316 7.85109 19.2547 8.50623C19.4668 8.8346 19.6285 9.1097 19.7383 9.30499C19.7933 9.40269 19.8354 9.48058 19.8643 9.53536C19.8788 9.56276 19.8901 9.58439 19.898 9.59985L19.9075 9.61837L19.9104 9.62406L19.9117 9.62673ZM2.14532 10.5896C1.99574 10.358 1.875 10.1574 1.78393 10C1.875 9.84261 1.99574 9.64204 2.14532 9.41044C2.5295 8.81557 3.09845 8.0245 3.83709 7.23662C5.32957 5.64463 7.41623 4.16667 9.99998 4.16667C12.5837 4.16667 14.6704 5.64463 16.1629 7.23662C16.9015 8.0245 17.4704 8.81557 17.8546 9.41044C18.0042 9.64204 18.1249 9.84261 18.216 10C18.1249 10.1574 18.0042 10.358 17.8546 10.5896C17.4704 11.1844 16.9015 11.9755 16.1629 12.7634C14.6704 14.3554 12.5837 15.8333 9.99998 15.8333C7.41623 15.8333 5.32957 14.3554 3.83709 12.7634C3.09845 11.9755 2.5295 11.1844 2.14532 10.5896Z" fill="black"/>
<path d="M19.1666 10L19.9117 9.62673C20.029 9.86134 20.029 10.1387 19.9117 10.3733L19.1666 10Z" fill="black"/>
<path d="M0.0882463 9.62673L0.833309 10L0.0879528 10.3727C-0.0293503 10.1381 -0.0290568 9.86134 0.0882463 9.62673Z" fill="black"/>
<line x1="18.7099" y1="0.704321" x2="0.709836" y2="18.8465" stroke="black" stroke-width="2"/>
</g>
<defs>
<clipPath id="clip0_339_2535">
<rect width="20" height="20" fill="white"/>
</clipPath>
</defs>
</svg>
