<svg width="16" height="16" viewBox="0 0 16 16" fill="none" xmlns="http://www.w3.org/2000/svg">
<g clip-path="url(#clip0_31_1134)">
<path fill-rule="evenodd" clip-rule="evenodd" d="M12.6666 0.781067C12.3315 0.781067 11.9996 0.847084 11.6899 0.975348C11.3803 1.10361 11.0989 1.29161 10.8619 1.52861L1.8619 10.5286C1.77987 10.6107 1.72066 10.7127 1.69013 10.8246L0.690132 14.4913C0.627185 14.7221 0.692737 14.9689 0.861904 15.1381C1.03107 15.3073 1.27791 15.3728 1.50872 15.3099L5.17539 14.3099C5.28732 14.2793 5.38934 14.2201 5.47138 14.1381L14.4714 5.13809C14.7084 4.90109 14.8964 4.61973 15.0246 4.31007C15.1529 4.00041 15.2189 3.66852 15.2189 3.33335C15.2189 2.99818 15.1529 2.66629 15.0246 2.35663C14.8964 2.04698 14.7084 1.76561 14.4714 1.52861C14.2344 1.29161 13.953 1.10361 13.6434 0.975348C13.3337 0.847084 13.0018 0.781067 12.6666 0.781067ZM12.2002 2.20719C12.3481 2.14593 12.5066 2.1144 12.6666 2.1144C12.8267 2.1144 12.9852 2.14593 13.1331 2.20719C13.281 2.26845 13.4154 2.35823 13.5286 2.47142C13.6418 2.58461 13.7315 2.71899 13.7928 2.86688C13.8541 3.01477 13.8856 3.17327 13.8856 3.33335C13.8856 3.49343 13.8541 3.65194 13.7928 3.79982C13.7315 3.94771 13.6418 4.08209 13.5286 4.19528L4.65376 13.0701L2.28345 13.7165L2.9299 11.3462L11.8047 2.47142C11.9179 2.35823 12.0523 2.26845 12.2002 2.20719Z" fill="black"/>
</g>
<defs>
<clipPath id="clip0_31_1134">
<rect width="16" height="16" fill="white"/>
</clipPath>
</defs>
</svg>
