<svg width="1063" height="1376" viewBox="0 0 1063 1376" fill="none" xmlns="http://www.w3.org/2000/svg">
<g clip-path="url(#clip0_155_3776)">
<rect width="1063" height="1375.65" fill="white"/>
<path d="M64 315C64 313.343 65.3431 312 67 312H124V336H67C65.3431 336 64 334.657 64 333V315Z" fill="#6C757D"/>
<path d="M124 312H181C182.657 312 184 313.343 184 315V333C184 334.657 182.657 336 181 336H124V312Z" fill="#6C757D"/>
<line x1="64" y1="351" x2="144" y2="351" stroke="#212529" stroke-width="2"/>
<rect x="64" y="368" width="254" height="16" rx="3" fill="#ADB5BD"/>
<path d="M64 395C64 393.343 65.3431 392 67 392H191V408H67C65.3431 408 64 406.657 64 405V395Z" fill="#ADB5BD"/>
<path d="M191 392H315C316.657 392 318 393.343 318 395V405C318 406.657 316.657 408 315 408H191V392Z" fill="#ADB5BD"/>
<rect x="64" y="416" width="254" height="16" rx="3" fill="#ADB5BD"/>
<rect x="64" y="440" width="254" height="16" rx="3" fill="#ADB5BD"/>
<path d="M64 507C64 505.343 65.3431 504 67 504H124V528H67C65.3431 528 64 526.657 64 525V507Z" fill="#6C757D"/>
<path d="M124 504H181C182.657 504 184 505.343 184 507V525C184 526.657 182.657 528 181 528H124V504Z" fill="#6C757D"/>
<line x1="64" y1="543" x2="144" y2="543" stroke="#212529" stroke-width="2"/>
<rect x="64" y="560" width="254" height="16" rx="3" fill="#ADB5BD"/>
<rect x="64" y="584" width="254" height="16" rx="3" fill="#ADB5BD"/>
<path d="M64 611C64 609.343 65.3431 608 67 608H148.667V624H67C65.3431 624 64 622.657 64 621V611Z" fill="#ADB5BD"/>
<path d="M148.667 608H230.333C231.99 608 233.333 609.343 233.333 611V621C233.333 622.657 231.99 624 230.333 624H148.667V608Z" fill="#ADB5BD"/>
<path d="M64 675C64 673.343 65.3431 672 67 672H124V696H67C65.3431 696 64 694.657 64 693V675Z" fill="#6C757D"/>
<path d="M124 672H181C182.657 672 184 673.343 184 675V693C184 694.657 182.657 696 181 696H124V672Z" fill="#6C757D"/>
<line x1="64" y1="711" x2="144" y2="711" stroke="#212529" stroke-width="2"/>
<rect x="64" y="728" width="254" height="16" rx="3" fill="#ADB5BD"/>
<rect x="64" y="752" width="254" height="16" rx="3" fill="#ADB5BD"/>
<path d="M64 779C64 777.343 65.3431 776 67 776H148.667V792H67C65.3431 792 64 790.657 64 789V779Z" fill="#ADB5BD"/>
<path d="M148.667 776H230.333C231.99 776 233.333 777.343 233.333 779V789C233.333 790.657 231.99 792 230.333 792H148.667V776Z" fill="#ADB5BD"/>
<path d="M64 843C64 841.343 65.3431 840 67 840H124V864H67C65.3431 864 64 862.657 64 861V843Z" fill="#6C757D"/>
<path d="M124 840H181C182.657 840 184 841.343 184 843V861C184 862.657 182.657 864 181 864H124V840Z" fill="#6C757D"/>
<line x1="64" y1="879" x2="144" y2="879" stroke="#212529" stroke-width="2"/>
<path d="M64 899C64 897.343 65.3431 896 67 896H130.667V912H67C65.3431 912 64 910.657 64 909V899Z" fill="#6C757D"/>
<path d="M130.667 896H194.333C195.99 896 197.333 897.343 197.333 899V909C197.333 910.657 195.99 912 194.333 912H130.667V896Z" fill="#6C757D"/>
<rect x="64" y="920" width="254" height="16" rx="3" fill="#ADB5BD"/>
<path d="M64 947C64 945.343 65.3431 944 67 944H148.667V960H67C65.3431 960 64 958.657 64 957V947Z" fill="#ADB5BD"/>
<path d="M148.667 944H230.333C231.99 944 233.333 945.343 233.333 947V957C233.333 958.657 231.99 960 230.333 960H148.667V944Z" fill="#ADB5BD"/>
<path d="M64 979C64 977.343 65.3431 976 67 976H130.667V992H67C65.3431 992 64 990.657 64 989V979Z" fill="#6C757D"/>
<path d="M130.667 976H194.333C195.99 976 197.333 977.343 197.333 979V989C197.333 990.657 195.99 992 194.333 992H130.667V976Z" fill="#6C757D"/>
<rect x="64" y="1000" width="254" height="16" rx="3" fill="#ADB5BD"/>
<path d="M64 1027C64 1025.34 65.3431 1024 67 1024H148.667V1040H67C65.3431 1040 64 1038.66 64 1037V1027Z" fill="#ADB5BD"/>
<path d="M148.667 1024H230.333C231.99 1024 233.333 1025.34 233.333 1027V1037C233.333 1038.66 231.99 1040 230.333 1040H148.667V1024Z" fill="#ADB5BD"/>
<path d="M64 1091C64 1089.34 65.3431 1088 67 1088H124V1112H67C65.3431 1112 64 1110.66 64 1109V1091Z" fill="#6C757D"/>
<path d="M124 1088H181C182.657 1088 184 1089.34 184 1091V1109C184 1110.66 182.657 1112 181 1112H124V1088Z" fill="#6C757D"/>
<line x1="64" y1="1127" x2="144" y2="1127" stroke="#212529" stroke-width="2"/>
<rect x="64" y="1144" width="254" height="16" rx="3" fill="#ADB5BD"/>
<rect x="64" y="1168" width="254" height="16" rx="3" fill="#ADB5BD"/>
<path d="M64 1195C64 1193.34 65.3431 1192 67 1192H148.667V1208H67C65.3431 1208 64 1206.66 64 1205V1195Z" fill="#ADB5BD"/>
<path d="M148.667 1192H230.333C231.99 1192 233.333 1193.34 233.333 1195V1205C233.333 1206.66 231.99 1208 230.333 1208H148.667V1192Z" fill="#ADB5BD"/>
<rect width="697" height="1112" transform="translate(366 264)" fill="white"/>
<path d="M366 315C366 313.343 367.343 312 369 312H426V336H369C367.343 336 366 334.657 366 333V315Z" fill="#6C757D"/>
<path d="M426 312H483C484.657 312 486 313.343 486 315V333C486 334.657 484.657 336 483 336H426V312Z" fill="#6C757D"/>
<line x1="366" y1="351" x2="446" y2="351" stroke="#212529" stroke-width="2"/>
<rect x="366" y="368" width="603" height="16" rx="3" fill="#ADB5BD"/>
<path d="M366 395C366 393.343 367.343 392 369 392H567V408H369C367.343 408 366 406.657 366 405V395Z" fill="#ADB5BD"/>
<path d="M567 392H765C766.657 392 768 393.343 768 395V405C768 406.657 766.657 408 765 408H567V392Z" fill="#ADB5BD"/>
<path d="M366 475C366 473.343 367.343 472 369 472H426V496H369C367.343 496 366 494.657 366 493V475Z" fill="#6C757D"/>
<path d="M426 472H483C484.657 472 486 473.343 486 475V493C486 494.657 484.657 496 483 496H426V472Z" fill="#6C757D"/>
<line x1="366" y1="511" x2="446" y2="511" stroke="#212529" stroke-width="2"/>
<path d="M366 531C366 529.343 367.343 528 369 528H501.667V544H369C367.343 544 366 542.657 366 541V531Z" fill="#6C757D"/>
<path d="M501.667 528H634.333C635.99 528 637.333 529.343 637.333 531V541C637.333 542.657 635.99 544 634.333 544H501.667V528Z" fill="#6C757D"/>
<rect x="789" y="528" width="180" height="16" rx="3" fill="#ADB5BD"/>
<rect x="366" y="552" width="603" height="16" rx="3" fill="#ADB5BD"/>
<rect x="366" y="576" width="603" height="16" rx="3" fill="#ADB5BD"/>
<rect x="366" y="600" width="603" height="16" rx="3" fill="#ADB5BD"/>
<path d="M366 627C366 625.343 367.343 624 369 624H567V640H369C367.343 640 366 638.657 366 637V627Z" fill="#ADB5BD"/>
<path d="M567 624H765C766.657 624 768 625.343 768 627V637C768 638.657 766.657 640 765 640H567V624Z" fill="#ADB5BD"/>
<path d="M366 675C366 673.343 367.343 672 369 672H501.667V688H369C367.343 688 366 686.657 366 685V675Z" fill="#6C757D"/>
<path d="M501.667 672H634.333C635.99 672 637.333 673.343 637.333 675V685C637.333 686.657 635.99 688 634.333 688H501.667V672Z" fill="#6C757D"/>
<rect x="789" y="672" width="180" height="16" rx="3" fill="#ADB5BD"/>
<rect x="366" y="696" width="603" height="16" rx="3" fill="#ADB5BD"/>
<rect x="366" y="720" width="603" height="16" rx="3" fill="#ADB5BD"/>
<rect x="366" y="744" width="603" height="16" rx="3" fill="#ADB5BD"/>
<path d="M366 771C366 769.343 367.343 768 369 768H567V784H369C367.343 784 366 782.657 366 781V771Z" fill="#ADB5BD"/>
<path d="M567 768H765C766.657 768 768 769.343 768 771V781C768 782.657 766.657 784 765 784H567V768Z" fill="#ADB5BD"/>
<path d="M366 819C366 817.343 367.343 816 369 816H501.667V832H369C367.343 832 366 830.657 366 829V819Z" fill="#6C757D"/>
<path d="M501.667 816H634.333C635.99 816 637.333 817.343 637.333 819V829C637.333 830.657 635.99 832 634.333 832H501.667V816Z" fill="#6C757D"/>
<rect x="789" y="816" width="180" height="16" rx="3" fill="#ADB5BD"/>
<rect x="366" y="840" width="603" height="16" rx="3" fill="#ADB5BD"/>
<rect x="366" y="864" width="603" height="16" rx="3" fill="#ADB5BD"/>
<rect x="366" y="888" width="603" height="16" rx="3" fill="#ADB5BD"/>
<path d="M366 915C366 913.343 367.343 912 369 912H567V928H369C367.343 928 366 926.657 366 925V915Z" fill="#ADB5BD"/>
<path d="M567 912H765C766.657 912 768 913.343 768 915V925C768 926.657 766.657 928 765 928H567V912Z" fill="#ADB5BD"/>
<path d="M366 995C366 993.343 367.343 992 369 992H426V1016H369C367.343 1016 366 1014.66 366 1013V995Z" fill="#6C757D"/>
<path d="M426 992H483C484.657 992 486 993.343 486 995V1013C486 1014.66 484.657 1016 483 1016H426V992Z" fill="#6C757D"/>
<line x1="366" y1="1031" x2="446" y2="1031" stroke="#212529" stroke-width="2"/>
<rect x="366" y="1048" width="140" height="16" rx="3" fill="#ADB5BD"/>
<rect x="366" y="1072" width="140" height="16" rx="3" fill="#ADB5BD"/>
<path d="M366 1099C366 1097.34 367.343 1096 369 1096H412.667V1112H369C367.343 1112 366 1110.66 366 1109V1099Z" fill="#ADB5BD"/>
<path d="M412.667 1096H456.333C457.99 1096 459.333 1097.34 459.333 1099V1109C459.333 1110.66 457.99 1112 456.333 1112H412.667V1096Z" fill="#ADB5BD"/>
<rect x="554" y="1048" width="140" height="16" rx="3" fill="#ADB5BD"/>
<rect x="554" y="1072" width="140" height="16" rx="3" fill="#ADB5BD"/>
<path d="M554 1099C554 1097.34 555.343 1096 557 1096H600.667V1112H557C555.343 1112 554 1110.66 554 1109V1099Z" fill="#ADB5BD"/>
<path d="M600.667 1096H644.333C645.99 1096 647.333 1097.34 647.333 1099V1109C647.333 1110.66 645.99 1112 644.333 1112H600.667V1096Z" fill="#ADB5BD"/>
<rect x="742" y="1048" width="140" height="16" rx="3" fill="#ADB5BD"/>
<rect x="742" y="1072" width="140" height="16" rx="3" fill="#ADB5BD"/>
<path d="M742 1099C742 1097.34 743.343 1096 745 1096H788.667V1112H745C743.343 1112 742 1110.66 742 1109V1099Z" fill="#ADB5BD"/>
<path d="M788.667 1096H832.333C833.99 1096 835.333 1097.34 835.333 1099V1109C835.333 1110.66 833.99 1112 832.333 1112H788.667V1096Z" fill="#ADB5BD"/>
<rect x="366" y="32" width="400" height="64" rx="3" fill="#6C757D"/>
<rect x="366" y="104" width="400" height="64" rx="3" fill="#6C757D"/>
<line x1="366" y1="183" x2="1063" y2="183" stroke="#212529" stroke-width="2"/>
<rect x="366" y="200" width="225" height="32" rx="3" fill="#6C757D"/>
</g>
<defs>
<clipPath id="clip0_155_3776">
<rect width="1063" height="1375.65" fill="white"/>
</clipPath>
</defs>
</svg>
