<svg width="1063" height="1376" viewBox="0 0 1063 1376" fill="none" xmlns="http://www.w3.org/2000/svg">
<g clip-path="url(#clip0_155_3460)">
<rect width="1063" height="1375.65" fill="white"/>
<path d="M48 260C48 258.343 49.3431 257 51 257H108V281H51C49.3431 281 48 279.657 48 278V260Z" fill="#6C757D"/>
<path d="M108 257H165C166.657 257 168 258.343 168 260V278C168 279.657 166.657 281 165 281H108V257Z" fill="#6C757D"/>
<rect x="48" y="297" width="217" height="16" rx="3" fill="#ADB5BD"/>
<path d="M48 324C48 322.343 49.3431 321 51 321H156.5V337H51C49.3431 337 48 335.657 48 334V324Z" fill="#ADB5BD"/>
<path d="M156.5 321H262C263.657 321 265 322.343 265 324V334C265 335.657 263.657 337 262 337H156.5V321Z" fill="#ADB5BD"/>
<rect x="48" y="345" width="217" height="16" rx="3" fill="#ADB5BD"/>
<rect x="48" y="369" width="217" height="16" rx="3" fill="#ADB5BD"/>
<path d="M48 436C48 434.343 49.3431 433 51 433H108V457H51C49.3431 457 48 455.657 48 454V436Z" fill="#6C757D"/>
<path d="M108 433H165C166.657 433 168 434.343 168 436V454C168 455.657 166.657 457 165 457H108V433Z" fill="#6C757D"/>
<rect x="48" y="473" width="217" height="16" rx="3" fill="#ADB5BD"/>
<rect x="48" y="497" width="217" height="16" rx="3" fill="#ADB5BD"/>
<path d="M48 524C48 522.343 49.3431 521 51 521H120.333V537H51C49.3431 537 48 535.657 48 534V524Z" fill="#ADB5BD"/>
<path d="M120.333 521H189.667C191.323 521 192.667 522.343 192.667 524V534C192.667 535.657 191.323 537 189.667 537H120.333V521Z" fill="#ADB5BD"/>
<path d="M48 588C48 586.343 49.3431 585 51 585H108V609H51C49.3431 609 48 607.657 48 606V588Z" fill="#6C757D"/>
<path d="M108 585H165C166.657 585 168 586.343 168 588V606C168 607.657 166.657 609 165 609H108V585Z" fill="#6C757D"/>
<rect x="48" y="625" width="217" height="16" rx="3" fill="#ADB5BD"/>
<rect x="48" y="649" width="217" height="16" rx="3" fill="#ADB5BD"/>
<path d="M48 676C48 674.343 49.3431 673 51 673H120.333V689H51C49.3431 689 48 687.657 48 686V676Z" fill="#ADB5BD"/>
<path d="M120.333 673H189.667C191.323 673 192.667 674.343 192.667 676V686C192.667 687.657 191.323 689 189.667 689H120.333V673Z" fill="#ADB5BD"/>
<path d="M48 740C48 738.343 49.3431 737 51 737H108V761H51C49.3431 761 48 759.657 48 758V740Z" fill="#6C757D"/>
<path d="M108 737H165C166.657 737 168 738.343 168 740V758C168 759.657 166.657 761 165 761H108V737Z" fill="#6C757D"/>
<path d="M48 780C48 778.343 49.3431 777 51 777H114.667V793H51C49.3431 793 48 791.657 48 790V780Z" fill="#6C757D"/>
<path d="M114.667 777H178.333C179.99 777 181.333 778.343 181.333 780V790C181.333 791.657 179.99 793 178.333 793H114.667V777Z" fill="#6C757D"/>
<rect x="48" y="801" width="217" height="16" rx="3" fill="#ADB5BD"/>
<rect x="48" y="825" width="217" height="16" rx="3" fill="#ADB5BD"/>
<path d="M48 852C48 850.343 49.3431 849 51 849H120.333V865H51C49.3431 865 48 863.657 48 862V852Z" fill="#ADB5BD"/>
<path d="M120.333 849H189.667C191.323 849 192.667 850.343 192.667 852V862C192.667 863.657 191.323 865 189.667 865H120.333V849Z" fill="#ADB5BD"/>
<path d="M48 884C48 882.343 49.3431 881 51 881H114.667V897H51C49.3431 897 48 895.657 48 894V884Z" fill="#6C757D"/>
<path d="M114.667 881H178.333C179.99 881 181.333 882.343 181.333 884V894C181.333 895.657 179.99 897 178.333 897H114.667V881Z" fill="#6C757D"/>
<rect x="48" y="905" width="217" height="16" rx="3" fill="#ADB5BD"/>
<rect x="48" y="929" width="217" height="16" rx="3" fill="#ADB5BD"/>
<path d="M48 956C48 954.343 49.3431 953 51 953H120.333V969H51C49.3431 969 48 967.657 48 966V956Z" fill="#ADB5BD"/>
<path d="M120.333 953H189.667C191.323 953 192.667 954.343 192.667 956V966C192.667 967.657 191.323 969 189.667 969H120.333V953Z" fill="#ADB5BD"/>
<path d="M48 1020C48 1018.34 49.3431 1017 51 1017H108V1041H51C49.3431 1041 48 1039.66 48 1038V1020Z" fill="#6C757D"/>
<path d="M108 1017H165C166.657 1017 168 1018.34 168 1020V1038C168 1039.66 166.657 1041 165 1041H108V1017Z" fill="#6C757D"/>
<rect x="48" y="1057" width="217" height="16" rx="3" fill="#ADB5BD"/>
<rect x="48" y="1081" width="217" height="16" rx="3" fill="#ADB5BD"/>
<path d="M48 1108C48 1106.34 49.3431 1105 51 1105H120.333V1121H51C49.3431 1121 48 1119.66 48 1118V1108Z" fill="#ADB5BD"/>
<path d="M120.333 1105H189.667C191.323 1105 192.667 1106.34 192.667 1108V1118C192.667 1119.66 191.323 1121 189.667 1121H120.333V1105Z" fill="#ADB5BD"/>
<rect width="766" height="1167" transform="translate(297 209)" fill="white"/>
<path d="M345 260C345 258.343 346.343 257 348 257H405V281H348C346.343 281 345 279.657 345 278V260Z" fill="#6C757D"/>
<path d="M405 257H462C463.657 257 465 258.343 465 260V278C465 279.657 463.657 281 462 281H405V257Z" fill="#6C757D"/>
<rect x="345" y="297" width="670" height="16" rx="3" fill="#ADB5BD"/>
<path d="M345 324C345 322.343 346.343 321 348 321H568.333V337H348C346.343 337 345 335.657 345 334V324Z" fill="#ADB5BD"/>
<path d="M568.333 321H788.667C790.323 321 791.667 322.343 791.667 324V334C791.667 335.657 790.323 337 788.667 337H568.333V321Z" fill="#ADB5BD"/>
<path d="M345 404C345 402.343 346.343 401 348 401H405V425H348C346.343 425 345 423.657 345 422V404Z" fill="#6C757D"/>
<path d="M405 401H462C463.657 401 465 402.343 465 404V422C465 423.657 463.657 425 462 425H405V401Z" fill="#6C757D"/>
<path d="M345 444C345 442.343 346.343 441 348 441H503V457H348C346.343 457 345 455.657 345 454V444Z" fill="#6C757D"/>
<path d="M503 441H658C659.657 441 661 442.343 661 444V454C661 455.657 659.657 457 658 457H503V441Z" fill="#6C757D"/>
<rect x="835" y="441" width="180" height="16" rx="3" fill="#ADB5BD"/>
<rect x="345" y="465" width="670" height="16" rx="3" fill="#ADB5BD"/>
<rect x="345" y="489" width="670" height="16" rx="3" fill="#ADB5BD"/>
<rect x="345" y="513" width="670" height="16" rx="3" fill="#ADB5BD"/>
<path d="M345 540C345 538.343 346.343 537 348 537H568.333V553H348C346.343 553 345 551.657 345 550V540Z" fill="#ADB5BD"/>
<path d="M568.333 537H788.667C790.323 537 791.667 538.343 791.667 540V550C791.667 551.657 790.323 553 788.667 553H568.333V537Z" fill="#ADB5BD"/>
<path d="M345 588C345 586.343 346.343 585 348 585H503V601H348C346.343 601 345 599.657 345 598V588Z" fill="#6C757D"/>
<path d="M503 585H658C659.657 585 661 586.343 661 588V598C661 599.657 659.657 601 658 601H503V585Z" fill="#6C757D"/>
<rect x="835" y="585" width="180" height="16" rx="3" fill="#ADB5BD"/>
<rect x="345" y="609" width="670" height="16" rx="3" fill="#ADB5BD"/>
<rect x="345" y="633" width="670" height="16" rx="3" fill="#ADB5BD"/>
<rect x="345" y="657" width="670" height="16" rx="3" fill="#ADB5BD"/>
<path d="M345 684C345 682.343 346.343 681 348 681H568.333V697H348C346.343 697 345 695.657 345 694V684Z" fill="#ADB5BD"/>
<path d="M568.333 681H788.667C790.323 681 791.667 682.343 791.667 684V694C791.667 695.657 790.323 697 788.667 697H568.333V681Z" fill="#ADB5BD"/>
<path d="M345 764C345 762.343 346.343 761 348 761H405V785H348C346.343 785 345 783.657 345 782V764Z" fill="#6C757D"/>
<path d="M405 761H462C463.657 761 465 762.343 465 764V782C465 783.657 463.657 785 462 785H405V761Z" fill="#6C757D"/>
<path d="M345 804C345 802.343 346.343 801 348 801H503V817H348C346.343 817 345 815.657 345 814V804Z" fill="#6C757D"/>
<path d="M503 801H658C659.657 801 661 802.343 661 804V814C661 815.657 659.657 817 658 817H503V801Z" fill="#6C757D"/>
<rect x="835" y="801" width="180" height="16" rx="3" fill="#ADB5BD"/>
<rect x="345" y="825" width="670" height="16" rx="3" fill="#ADB5BD"/>
<rect x="345" y="849" width="670" height="16" rx="3" fill="#ADB5BD"/>
<rect x="345" y="873" width="670" height="16" rx="3" fill="#ADB5BD"/>
<path d="M345 900C345 898.343 346.343 897 348 897H568.333V913H348C346.343 913 345 911.657 345 910V900Z" fill="#ADB5BD"/>
<path d="M568.333 897H788.667C790.323 897 791.667 898.343 791.667 900V910C791.667 911.657 790.323 913 788.667 913H568.333V897Z" fill="#ADB5BD"/>
<path d="M345 980C345 978.343 346.343 977 348 977H405V1001H348C346.343 1001 345 999.657 345 998V980Z" fill="#6C757D"/>
<path d="M405 977H462C463.657 977 465 978.343 465 980V998C465 999.657 463.657 1001 462 1001H405V977Z" fill="#6C757D"/>
<rect x="345" y="1017" width="140" height="16" rx="3" fill="#ADB5BD"/>
<rect x="345" y="1041" width="140" height="16" rx="3" fill="#ADB5BD"/>
<path d="M345 1068C345 1066.34 346.343 1065 348 1065H391.667V1081H348C346.343 1081 345 1079.66 345 1078V1068Z" fill="#ADB5BD"/>
<path d="M391.667 1065H435.333C436.99 1065 438.333 1066.34 438.333 1068V1078C438.333 1079.66 436.99 1081 435.333 1081H391.667V1065Z" fill="#ADB5BD"/>
<rect x="533" y="1017" width="140" height="16" rx="3" fill="#ADB5BD"/>
<rect x="533" y="1041" width="140" height="16" rx="3" fill="#ADB5BD"/>
<path d="M533 1068C533 1066.34 534.343 1065 536 1065H579.667V1081H536C534.343 1081 533 1079.66 533 1078V1068Z" fill="#ADB5BD"/>
<path d="M579.667 1065H623.333C624.99 1065 626.333 1066.34 626.333 1068V1078C626.333 1079.66 624.99 1081 623.333 1081H579.667V1065Z" fill="#ADB5BD"/>
<rect x="721" y="1017" width="140" height="16" rx="3" fill="#ADB5BD"/>
<rect x="721" y="1041" width="140" height="16" rx="3" fill="#ADB5BD"/>
<path d="M721 1068C721 1066.34 722.343 1065 724 1065H767.667V1081H724C722.343 1081 721 1079.66 721 1078V1068Z" fill="#ADB5BD"/>
<path d="M767.667 1065H811.333C812.99 1065 814.333 1066.34 814.333 1068V1078C814.333 1079.66 812.99 1081 811.333 1081H767.667V1065Z" fill="#ADB5BD"/>
<rect width="1063" height="209" fill="#CED4DA"/>
<path d="M351.5 55.5C351.5 53.8431 352.843 52.5 354.5 52.5H471.5V116.5H354.5C352.843 116.5 351.5 115.157 351.5 113.5V55.5Z" fill="#6C757D"/>
<rect x="471.5" y="52.5" width="120" height="64" fill="#6C757D"/>
<path d="M591.5 52.5H708.5C710.157 52.5 711.5 53.8431 711.5 55.5V113.5C711.5 115.157 710.157 116.5 708.5 116.5H591.5V52.5Z" fill="#6C757D"/>
<path d="M411.5 127.5C411.5 125.843 412.843 124.5 414.5 124.5H491.5V156.5H414.5C412.843 156.5 411.5 155.157 411.5 153.5V127.5Z" fill="#6C757D"/>
<rect x="491.5" y="124.5" width="80" height="32" fill="#6C757D"/>
<path d="M571.5 124.5H648.5C650.157 124.5 651.5 125.843 651.5 127.5V153.5C651.5 155.157 650.157 156.5 648.5 156.5H571.5V124.5Z" fill="#6C757D"/>
</g>
<defs>
<clipPath id="clip0_155_3460">
<rect width="1063" height="1375.65" fill="white"/>
</clipPath>
</defs>
</svg>
