<svg width="1063" height="1376" viewBox="0 0 1063 1376" fill="none" xmlns="http://www.w3.org/2000/svg">
<rect width="1063" height="1376" fill="white"/>
<rect x="48" y="48" width="400" height="64" rx="3" fill="#6C757D"/>
<rect x="48" y="120" width="225" height="32" rx="3" fill="#6C757D"/>
<path d="M612 0V200H614V0H612Z" fill="#212529"/>
<rect x="645" y="56" width="234" height="16" rx="3" fill="#ADB5BD"/>
<path d="M645 83C645 81.3431 646.343 80 648 80H723V96H648C646.343 96 645 94.6569 645 93V83Z" fill="#ADB5BD"/>
<path d="M723 80H798C799.657 80 801 81.3431 801 83V93C801 94.6569 799.657 96 798 96H723V80Z" fill="#ADB5BD"/>
<rect x="645" y="104" width="112" height="16" rx="3" fill="#ADB5BD"/>
<rect x="645" y="128" width="112" height="16" rx="3" fill="#ADB5BD"/>
<path d="M48 251C48 249.343 49.3431 248 51 248H136.667V272H51C49.3431 272 48 270.657 48 269V251Z" fill="#6C757D"/>
<path d="M136.667 248H222.333C223.99 248 225.333 249.343 225.333 251V269C225.333 270.657 223.99 272 222.333 272H136.667V248Z" fill="#6C757D"/>
<path d="M313 248V288H315V248H313Z" fill="#212529"/>
<rect x="346" y="248" width="669" height="16" rx="3" fill="#ADB5BD"/>
<path d="M346 275C346 273.343 347.343 272 349 272H569V288H349C347.343 288 346 286.657 346 285V275Z" fill="#ADB5BD"/>
<path d="M569 272H789C790.657 272 792 273.343 792 275V285C792 286.657 790.657 288 789 288H569V272Z" fill="#ADB5BD"/>
<path d="M48 339C48 337.343 49.3431 336 51 336H136.667V360H51C49.3431 360 48 358.657 48 357V339Z" fill="#6C757D"/>
<path d="M136.667 336H222.333C223.99 336 225.333 337.343 225.333 339V357C225.333 358.657 223.99 360 222.333 360H136.667V336Z" fill="#6C757D"/>
<rect x="48" y="376" width="234" height="16" rx="3" fill="#ADB5BD"/>
<path d="M48 403C48 401.343 49.3431 400 51 400H165V416H51C49.3431 416 48 414.657 48 413V403Z" fill="#ADB5BD"/>
<path d="M165 400H279C280.657 400 282 401.343 282 403V413C282 414.657 280.657 416 279 416H165V400Z" fill="#ADB5BD"/>
<rect x="48" y="424" width="234" height="16" rx="3" fill="#ADB5BD"/>
<path d="M313 376V464H315V376H313Z" fill="#212529"/>
<rect x="346" y="376" width="669" height="16" rx="3" fill="#ADB5BD"/>
<rect x="346" y="400" width="669" height="16" rx="3" fill="#ADB5BD"/>
<rect x="346" y="424" width="669" height="16" rx="3" fill="#ADB5BD"/>
<path d="M346 451C346 449.343 347.343 448 349 448H569V464H349C347.343 464 346 462.657 346 461V451Z" fill="#ADB5BD"/>
<path d="M569 448H789C790.657 448 792 449.343 792 451V461C792 462.657 790.657 464 789 464H569V448Z" fill="#ADB5BD"/>
<rect x="48" y="496" width="234" height="16" rx="3" fill="#ADB5BD"/>
<path d="M48 523C48 521.343 49.3431 520 51 520H165V536H51C49.3431 536 48 534.657 48 533V523Z" fill="#ADB5BD"/>
<path d="M165 520H279C280.657 520 282 521.343 282 523V533C282 534.657 280.657 536 279 536H165V520Z" fill="#ADB5BD"/>
<rect x="48" y="544" width="234" height="16" rx="3" fill="#ADB5BD"/>
<path d="M313 496V584H315V496H313Z" fill="#212529"/>
<rect x="346" y="496" width="669" height="16" rx="3" fill="#ADB5BD"/>
<rect x="346" y="520" width="669" height="16" rx="3" fill="#ADB5BD"/>
<rect x="346" y="544" width="669" height="16" rx="3" fill="#ADB5BD"/>
<path d="M346 571C346 569.343 347.343 568 349 568H569V584H349C347.343 584 346 582.657 346 581V571Z" fill="#ADB5BD"/>
<path d="M569 568H789C790.657 568 792 569.343 792 571V581C792 582.657 790.657 584 789 584H569V568Z" fill="#ADB5BD"/>
<rect x="48" y="616" width="234" height="16" rx="3" fill="#ADB5BD"/>
<path d="M48 643C48 641.343 49.3431 640 51 640H165V656H51C49.3431 656 48 654.657 48 653V643Z" fill="#ADB5BD"/>
<path d="M165 640H279C280.657 640 282 641.343 282 643V653C282 654.657 280.657 656 279 656H165V640Z" fill="#ADB5BD"/>
<rect x="48" y="664" width="234" height="16" rx="3" fill="#ADB5BD"/>
<path d="M313 616V704H315V616H313Z" fill="#212529"/>
<rect x="346" y="616" width="669" height="16" rx="3" fill="#ADB5BD"/>
<rect x="346" y="640" width="669" height="16" rx="3" fill="#ADB5BD"/>
<rect x="346" y="664" width="669" height="16" rx="3" fill="#ADB5BD"/>
<path d="M346 691C346 689.343 347.343 688 349 688H569V704H349C347.343 704 346 702.657 346 701V691Z" fill="#ADB5BD"/>
<path d="M569 688H789C790.657 688 792 689.343 792 691V701C792 702.657 790.657 704 789 704H569V688Z" fill="#ADB5BD"/>
<path d="M48 755C48 753.343 49.3431 752 51 752H136.667V776H51C49.3431 776 48 774.657 48 773V755Z" fill="#6C757D"/>
<path d="M136.667 752H222.333C223.99 752 225.333 753.343 225.333 755V773C225.333 774.657 223.99 776 222.333 776H136.667V752Z" fill="#6C757D"/>
<path d="M48 795C48 793.343 49.3431 792 51 792H125.667V808H51C49.3431 808 48 806.657 48 805V795Z" fill="#6C757D"/>
<path d="M125.667 792H200.333C201.99 792 203.333 793.343 203.333 795V805C203.333 806.657 201.99 808 200.333 808H125.667V792Z" fill="#6C757D"/>
<path d="M312 792V808H314V792H312Z" fill="#212529"/>
<rect x="345" y="792" width="400" height="16" rx="3" fill="#ADB5BD"/>
<path d="M48 819C48 817.343 49.3431 816 51 816H125.667V832H51C49.3431 832 48 830.657 48 829V819Z" fill="#6C757D"/>
<path d="M125.667 816H200.333C201.99 816 203.333 817.343 203.333 819V829C203.333 830.657 201.99 832 200.333 832H125.667V816Z" fill="#6C757D"/>
<path d="M312 816V832H314V816H312Z" fill="#212529"/>
<rect x="345" y="816" width="400" height="16" rx="3" fill="#ADB5BD"/>
<path d="M48 883C48 881.343 49.3431 880 51 880H136.667V904H51C49.3431 904 48 902.657 48 901V883Z" fill="#6C757D"/>
<path d="M136.667 880H222.333C223.99 880 225.333 881.343 225.333 883V901C225.333 902.657 223.99 904 222.333 904H136.667V880Z" fill="#6C757D"/>
<rect x="48" y="920" width="240" height="16" rx="3" fill="#ADB5BD"/>
<path d="M48 947C48 945.343 49.3431 944 51 944H168V960H51C49.3431 960 48 958.657 48 957V947Z" fill="#ADB5BD"/>
<path d="M168 944H285C286.657 944 288 945.343 288 947V957C288 958.657 286.657 960 285 960H168V944Z" fill="#ADB5BD"/>
<rect x="48" y="968" width="120" height="16" rx="3" fill="#ADB5BD"/>
<path d="M612 880V984H614V880H612Z" fill="#212529"/>
<path d="M645 883C645 881.343 646.343 880 648 880H733.667V904H648C646.343 904 645 902.657 645 901V883Z" fill="#6C757D"/>
<path d="M733.667 880H819.333C820.99 880 822.333 881.343 822.333 883V901C822.333 902.657 820.99 904 819.333 904H733.667V880Z" fill="#6C757D"/>
<rect x="645" y="920" width="240" height="16" rx="3" fill="#ADB5BD"/>
<path d="M645 947C645 945.343 646.343 944 648 944H765V960H648C646.343 960 645 958.657 645 957V947Z" fill="#ADB5BD"/>
<path d="M765 944H882C883.657 944 885 945.343 885 947V957C885 958.657 883.657 960 882 960H765V944Z" fill="#ADB5BD"/>
<rect x="645" y="968" width="120" height="16" rx="3" fill="#ADB5BD"/>
<path d="M48 1035C48 1033.34 49.3431 1032 51 1032H136.667V1056H51C49.3431 1056 48 1054.66 48 1053V1035Z" fill="#6C757D"/>
<path d="M136.667 1032H222.333C223.99 1032 225.333 1033.34 225.333 1035V1053C225.333 1054.66 223.99 1056 222.333 1056H136.667V1032Z" fill="#6C757D"/>
<rect x="48" y="1072" width="240" height="16" rx="3" fill="#ADB5BD"/>
<path d="M48 1099C48 1097.34 49.3431 1096 51 1096H168V1112H51C49.3431 1112 48 1110.66 48 1109V1099Z" fill="#ADB5BD"/>
<path d="M168 1096H285C286.657 1096 288 1097.34 288 1099V1109C288 1110.66 286.657 1112 285 1112H168V1096Z" fill="#ADB5BD"/>
<rect x="48" y="1120" width="120" height="16" rx="3" fill="#ADB5BD"/>
<path d="M612 1032V1136H614V1032H612Z" fill="#212529"/>
<path d="M645 1035C645 1033.34 646.343 1032 648 1032H733.667V1056H648C646.343 1056 645 1054.66 645 1053V1035Z" fill="#6C757D"/>
<path d="M733.667 1032H819.333C820.99 1032 822.333 1033.34 822.333 1035V1053C822.333 1054.66 820.99 1056 819.333 1056H733.667V1032Z" fill="#6C757D"/>
<rect x="645" y="1072" width="240" height="16" rx="3" fill="#ADB5BD"/>
<path d="M645 1099C645 1097.34 646.343 1096 648 1096H765V1112H648C646.343 1112 645 1110.66 645 1109V1099Z" fill="#ADB5BD"/>
<path d="M765 1096H882C883.657 1096 885 1097.34 885 1099V1109C885 1110.66 883.657 1112 882 1112H765V1096Z" fill="#ADB5BD"/>
<rect x="645" y="1120" width="120" height="16" rx="3" fill="#ADB5BD"/>
</svg>
