<svg width="1063" height="1376" viewBox="0 0 1063 1376" fill="none" xmlns="http://www.w3.org/2000/svg">
<g clip-path="url(#clip0_155_4102)">
<rect width="1063" height="1376" fill="white"/>
<rect width="1063" height="1375.65" fill="white"/>
<rect x="64" y="64" width="400" height="64" rx="3" fill="#6C757D"/>
<rect x="64" y="136" width="225" height="32" rx="3" fill="#6C757D"/>
<rect x="859" y="72" width="140" height="16" rx="3" fill="#ADB5BD"/>
<path d="M859 99C859 97.3431 860.343 96 862 96H929V112H862C860.343 112 859 110.657 859 109V99Z" fill="#ADB5BD"/>
<path d="M929 96H996C997.657 96 999 97.3431 999 99V109C999 110.657 997.657 112 996 112H929V96Z" fill="#ADB5BD"/>
<rect x="859" y="120" width="140" height="16" rx="3" fill="#ADB5BD"/>
<rect x="859" y="144" width="140" height="16" rx="3" fill="#ADB5BD"/>
<line x1="64" y1="215" x2="999" y2="215" stroke="#212529" stroke-width="2"/>
<path d="M64 267C64 265.343 65.3431 264 67 264H124V288H67C65.3431 288 64 286.657 64 285V267Z" fill="#6C757D"/>
<path d="M124 264H181C182.657 264 184 265.343 184 267V285C184 286.657 182.657 288 181 288H124V264Z" fill="#6C757D"/>
<rect x="96" y="304" width="903" height="16" rx="3" fill="#ADB5BD"/>
<path d="M64 371C64 369.343 65.3431 368 67 368H124V392H67C65.3431 392 64 390.657 64 389V371Z" fill="#6C757D"/>
<path d="M124 368H181C182.657 368 184 369.343 184 371V389C184 390.657 182.657 392 181 392H124V368Z" fill="#6C757D"/>
<path d="M96 411C96 409.343 97.3431 408 99 408H331.667V424H99C97.3432 424 96 422.657 96 421V411Z" fill="#6C757D"/>
<path d="M331.667 408H564.333C565.99 408 567.333 409.343 567.333 411V421C567.333 422.657 565.99 424 564.333 424H331.667V408Z" fill="#6C757D"/>
<rect x="819" y="408" width="180" height="16" rx="3" fill="#ADB5BD"/>
<rect x="96" y="432" width="903" height="16" rx="3" fill="#ADB5BD"/>
<rect x="96" y="456" width="903" height="16" rx="3" fill="#ADB5BD"/>
<rect x="96" y="480" width="903" height="16" rx="3" fill="#ADB5BD"/>
<path d="M96 507C96 505.343 97.3431 504 99 504H397V520H99C97.3431 520 96 518.657 96 517V507Z" fill="#ADB5BD"/>
<path d="M397 504H695C696.657 504 698 505.343 698 507V517C698 518.657 696.657 520 695 520H397V504Z" fill="#ADB5BD"/>
<path d="M96 539C96 537.343 97.3431 536 99 536H331.667V552H99C97.3432 552 96 550.657 96 549V539Z" fill="#6C757D"/>
<path d="M331.667 536H564.333C565.99 536 567.333 537.343 567.333 539V549C567.333 550.657 565.99 552 564.333 552H331.667V536Z" fill="#6C757D"/>
<rect x="819" y="536" width="180" height="16" rx="3" fill="#ADB5BD"/>
<rect x="96" y="560" width="903" height="16" rx="3" fill="#ADB5BD"/>
<rect x="96" y="584" width="903" height="16" rx="3" fill="#ADB5BD"/>
<rect x="96" y="608" width="903" height="16" rx="3" fill="#ADB5BD"/>
<path d="M96 635C96 633.343 97.3431 632 99 632H397V648H99C97.3431 648 96 646.657 96 645V635Z" fill="#ADB5BD"/>
<path d="M397 632H695C696.657 632 698 633.343 698 635V645C698 646.657 696.657 648 695 648H397V632Z" fill="#ADB5BD"/>
<path d="M96 667C96 665.343 97.3431 664 99 664H331.667V680H99C97.3432 680 96 678.657 96 677V667Z" fill="#6C757D"/>
<path d="M331.667 664H564.333C565.99 664 567.333 665.343 567.333 667V677C567.333 678.657 565.99 680 564.333 680H331.667V664Z" fill="#6C757D"/>
<rect x="819" y="664" width="180" height="16" rx="3" fill="#ADB5BD"/>
<rect x="96" y="688" width="903" height="16" rx="3" fill="#ADB5BD"/>
<rect x="96" y="712" width="903" height="16" rx="3" fill="#ADB5BD"/>
<rect x="96" y="736" width="903" height="16" rx="3" fill="#ADB5BD"/>
<path d="M96 763C96 761.343 97.3431 760 99 760H397V776H99C97.3431 776 96 774.657 96 773V763Z" fill="#ADB5BD"/>
<path d="M397 760H695C696.657 760 698 761.343 698 763V773C698 774.657 696.657 776 695 776H397V760Z" fill="#ADB5BD"/>
<path d="M64 827C64 825.343 65.3431 824 67 824H124V848H67C65.3431 848 64 846.657 64 845V827Z" fill="#6C757D"/>
<path d="M124 824H181C182.657 824 184 825.343 184 827V845C184 846.657 182.657 848 181 848H124V824Z" fill="#6C757D"/>
<path d="M96 867C96 865.343 97.3431 864 99 864H162.667V880H99C97.3431 880 96 878.657 96 877V867Z" fill="#6C757D"/>
<path d="M162.667 864H226.333C227.99 864 229.333 865.343 229.333 867V877C229.333 878.657 227.99 880 226.333 880H162.667V864Z" fill="#6C757D"/>
<rect x="96" y="884" width="411.5" height="16" rx="3" fill="#ADB5BD"/>
<path d="M96 911C96 909.343 97.3431 908 99 908H233.167V924H99C97.3431 924 96 922.657 96 921V911Z" fill="#ADB5BD"/>
<path d="M233.167 908H367.333C368.99 908 370.333 909.343 370.333 911V921C370.333 922.657 368.99 924 367.333 924H233.167V908Z" fill="#ADB5BD"/>
<path d="M587.5 867C587.5 865.343 588.843 864 590.5 864H654.167V880H590.5C588.843 880 587.5 878.657 587.5 877V867Z" fill="#6C757D"/>
<path d="M654.167 864H717.833C719.49 864 720.833 865.343 720.833 867V877C720.833 878.657 719.49 880 717.833 880H654.167V864Z" fill="#6C757D"/>
<rect x="587.5" y="884" width="411.5" height="16" rx="3" fill="#ADB5BD"/>
<path d="M587.5 911C587.5 909.343 588.843 908 590.5 908H724.667V924H590.5C588.843 924 587.5 922.657 587.5 921V911Z" fill="#ADB5BD"/>
<path d="M724.667 908H858.833C860.49 908 861.833 909.343 861.833 911V921C861.833 922.657 860.49 924 858.833 924H724.667V908Z" fill="#ADB5BD"/>
<path d="M64 975C64 973.343 65.3431 972 67 972H124V996H67C65.3431 996 64 994.657 64 993V975Z" fill="#6C757D"/>
<path d="M124 972H181C182.657 972 184 973.343 184 975V993C184 994.657 182.657 996 181 996H124V972Z" fill="#6C757D"/>
<rect x="96" y="1012" width="180" height="16" rx="3" fill="#ADB5BD"/>
<rect x="96" y="1036" width="180" height="16" rx="3" fill="#ADB5BD"/>
<path d="M96 1063C96 1061.34 97.3431 1060 99 1060H156V1076H99C97.3431 1076 96 1074.66 96 1073V1063Z" fill="#ADB5BD"/>
<path d="M156 1060H213C214.657 1060 216 1061.34 216 1063V1073C216 1074.66 214.657 1076 213 1076H156V1060Z" fill="#ADB5BD"/>
<path d="M555.5 975C555.5 973.343 556.843 972 558.5 972H615.5V996H558.5C556.843 996 555.5 994.657 555.5 993V975Z" fill="#6C757D"/>
<path d="M615.5 972H672.5C674.157 972 675.5 973.343 675.5 975V993C675.5 994.657 674.157 996 672.5 996H615.5V972Z" fill="#6C757D"/>
<rect x="587.5" y="1012" width="180" height="16" rx="3" fill="#ADB5BD"/>
<rect x="587.5" y="1036" width="180" height="16" rx="3" fill="#ADB5BD"/>
<path d="M587.5 1063C587.5 1061.34 588.843 1060 590.5 1060H647.5V1076H590.5C588.843 1076 587.5 1074.66 587.5 1073V1063Z" fill="#ADB5BD"/>
<path d="M647.5 1060H704.5C706.157 1060 707.5 1061.34 707.5 1063V1073C707.5 1074.66 706.157 1076 704.5 1076H647.5V1060Z" fill="#ADB5BD"/>
<path d="M64 1127C64 1125.34 65.3431 1124 67 1124H124V1148H67C65.3431 1148 64 1146.66 64 1145V1127Z" fill="#6C757D"/>
<path d="M124 1124H181C182.657 1124 184 1125.34 184 1127V1145C184 1146.66 182.657 1148 181 1148H124V1124Z" fill="#6C757D"/>
<rect x="96" y="1164" width="140" height="16" rx="3" fill="#ADB5BD"/>
<rect x="96" y="1188" width="140" height="16" rx="3" fill="#ADB5BD"/>
<path d="M96 1215C96 1213.34 97.3431 1212 99 1212H142.667V1228H99C97.3431 1228 96 1226.66 96 1225V1215Z" fill="#ADB5BD"/>
<path d="M142.667 1212H186.333C187.99 1212 189.333 1213.34 189.333 1215V1225C189.333 1226.66 187.99 1228 186.333 1228H142.667V1212Z" fill="#ADB5BD"/>
<rect x="284" y="1164" width="140" height="16" rx="3" fill="#ADB5BD"/>
<rect x="284" y="1188" width="140" height="16" rx="3" fill="#ADB5BD"/>
<path d="M284 1215C284 1213.34 285.343 1212 287 1212H330.667V1228H287C285.343 1228 284 1226.66 284 1225V1215Z" fill="#ADB5BD"/>
<path d="M330.667 1212H374.333C375.99 1212 377.333 1213.34 377.333 1215V1225C377.333 1226.66 375.99 1228 374.333 1228H330.667V1212Z" fill="#ADB5BD"/>
<rect x="472" y="1164" width="140" height="16" rx="3" fill="#ADB5BD"/>
<rect x="472" y="1188" width="140" height="16" rx="3" fill="#ADB5BD"/>
<path d="M472 1215C472 1213.34 473.343 1212 475 1212H518.667V1228H475C473.343 1228 472 1226.66 472 1225V1215Z" fill="#ADB5BD"/>
<path d="M518.667 1212H562.333C563.99 1212 565.333 1213.34 565.333 1215V1225C565.333 1226.66 563.99 1228 562.333 1228H518.667V1212Z" fill="#ADB5BD"/>
</g>
<defs>
<clipPath id="clip0_155_4102">
<rect width="1063" height="1376" fill="white"/>
</clipPath>
</defs>
</svg>
